<mxfile host="app.diagrams.net" agent="Mozilla/5.0 (Macintosh; Intel Mac OS X 10_15_7) AppleWebKit/537.36 (KHTML, like Gecko) Chrome/137.0.0.0 Safari/537.36" version="27.1.4">
  <diagram name="PÃ¡gina-1" id="8Nr6kVrE9SyybX-va9n5">
    <mxGraphModel dx="1131" dy="728" grid="1" gridSize="5" guides="1" tooltips="1" connect="1" arrows="1" fold="1" page="1" pageScale="1" pageWidth="1169" pageHeight="827" math="0" shadow="0">
      <root>
        <mxCell id="0" />
        <mxCell id="1" parent="0" />
        <mxCell id="F-6HF-LXUj0dGaGDXy4D-17" value="" style="curved=1;endArrow=none;html=1;rounded=0;exitX=0.696;exitY=0.073;exitDx=0;exitDy=0;exitPerimeter=0;entryX=0.5;entryY=0;entryDx=0;entryDy=0;entryPerimeter=0;strokeWidth=2;dashed=1;startFill=0;" edge="1" parent="1" source="F-6HF-LXUj0dGaGDXy4D-14" target="F-6HF-LXUj0dGaGDXy4D-7">
          <mxGeometry width="50" height="50" relative="1" as="geometry">
            <mxPoint x="675" y="160" as="sourcePoint" />
            <mxPoint x="725" y="110" as="targetPoint" />
            <Array as="points">
              <mxPoint x="745" y="205" />
              <mxPoint x="865" y="190" />
            </Array>
          </mxGeometry>
        </mxCell>
        <mxCell id="F-6HF-LXUj0dGaGDXy4D-10" value="" style="endArrow=none;html=1;rounded=0;strokeWidth=3;entryX=0.5;entryY=0.98;entryDx=0;entryDy=0;entryPerimeter=0;" edge="1" parent="1" source="F-6HF-LXUj0dGaGDXy4D-6" target="F-6HF-LXUj0dGaGDXy4D-4">
          <mxGeometry width="50" height="50" relative="1" as="geometry">
            <mxPoint x="484" y="265" as="sourcePoint" />
            <mxPoint x="365" y="271" as="targetPoint" />
          </mxGeometry>
        </mxCell>
        <mxCell id="F-6HF-LXUj0dGaGDXy4D-9" value="" style="endArrow=none;html=1;rounded=0;exitX=0.5;exitY=0.98;exitDx=0;exitDy=0;exitPerimeter=0;strokeWidth=3;entryX=0.87;entryY=0.74;entryDx=0;entryDy=0;entryPerimeter=0;" edge="1" parent="1" source="F-6HF-LXUj0dGaGDXy4D-6" target="F-6HF-LXUj0dGaGDXy4D-1">
          <mxGeometry width="50" height="50" relative="1" as="geometry">
            <mxPoint x="415" y="400" as="sourcePoint" />
            <mxPoint x="330" y="315" as="targetPoint" />
          </mxGeometry>
        </mxCell>
        <mxCell id="F-6HF-LXUj0dGaGDXy4D-8" value="" style="endArrow=none;html=1;rounded=0;exitX=0.5;exitY=0.98;exitDx=0;exitDy=0;exitPerimeter=0;strokeWidth=3;entryX=0.5;entryY=0.98;entryDx=0;entryDy=0;entryPerimeter=0;" edge="1" parent="1" source="F-6HF-LXUj0dGaGDXy4D-4" target="F-6HF-LXUj0dGaGDXy4D-1">
          <mxGeometry width="50" height="50" relative="1" as="geometry">
            <mxPoint x="380" y="340" as="sourcePoint" />
            <mxPoint x="430" y="290" as="targetPoint" />
          </mxGeometry>
        </mxCell>
        <mxCell id="F-6HF-LXUj0dGaGDXy4D-2" value="" style="shape=mxgraph.cisco.switches.workgroup_switch;html=1;pointerEvents=1;dashed=0;fillColor=#036897;strokeColor=#ffffff;strokeWidth=2;verticalLabelPosition=bottom;verticalAlign=top;align=center;outlineConnect=0;" vertex="1" parent="1">
          <mxGeometry x="245" y="250" width="96" height="50" as="geometry" />
        </mxCell>
        <mxCell id="F-6HF-LXUj0dGaGDXy4D-1" value="" style="shape=mxgraph.cisco.switches.workgroup_switch;html=1;pointerEvents=1;dashed=0;fillColor=#FF3333;strokeColor=#ffffff;strokeWidth=2;verticalLabelPosition=bottom;verticalAlign=top;align=center;outlineConnect=0;" vertex="1" parent="1">
          <mxGeometry x="245" y="240" width="96" height="40" as="geometry" />
        </mxCell>
        <mxCell id="F-6HF-LXUj0dGaGDXy4D-3" value="" style="shape=mxgraph.cisco.switches.workgroup_switch;html=1;pointerEvents=1;dashed=0;fillColor=#036897;strokeColor=#ffffff;strokeWidth=2;verticalLabelPosition=bottom;verticalAlign=top;align=center;outlineConnect=0;" vertex="1" parent="1">
          <mxGeometry x="330" y="335" width="96" height="50" as="geometry" />
        </mxCell>
        <mxCell id="F-6HF-LXUj0dGaGDXy4D-4" value="" style="shape=mxgraph.cisco.switches.workgroup_switch;html=1;pointerEvents=1;dashed=0;fillColor=#FF3333;strokeColor=#ffffff;strokeWidth=2;verticalLabelPosition=bottom;verticalAlign=top;align=center;outlineConnect=0;" vertex="1" parent="1">
          <mxGeometry x="330" y="325" width="96" height="40" as="geometry" />
        </mxCell>
        <mxCell id="F-6HF-LXUj0dGaGDXy4D-5" value="" style="shape=mxgraph.cisco.switches.workgroup_switch;html=1;pointerEvents=1;dashed=0;fillColor=#036897;strokeColor=#ffffff;strokeWidth=2;verticalLabelPosition=bottom;verticalAlign=top;align=center;outlineConnect=0;" vertex="1" parent="1">
          <mxGeometry x="400" y="235" width="96" height="50" as="geometry" />
        </mxCell>
        <mxCell id="F-6HF-LXUj0dGaGDXy4D-6" value="" style="shape=mxgraph.cisco.switches.workgroup_switch;html=1;pointerEvents=1;dashed=0;fillColor=#FF3333;strokeColor=#ffffff;strokeWidth=2;verticalLabelPosition=bottom;verticalAlign=top;align=center;outlineConnect=0;" vertex="1" parent="1">
          <mxGeometry x="400" y="225" width="96" height="40" as="geometry" />
        </mxCell>
        <mxCell id="F-6HF-LXUj0dGaGDXy4D-7" value="" style="shape=mxgraph.cisco.switches.generic_softswitch;html=1;pointerEvents=1;dashed=0;fillColor=#FF3333;strokeColor=#ffffff;strokeWidth=2;verticalLabelPosition=bottom;verticalAlign=top;align=center;outlineConnect=0;" vertex="1" parent="1">
          <mxGeometry x="900" y="260" width="45" height="80" as="geometry" />
        </mxCell>
        <mxCell id="F-6HF-LXUj0dGaGDXy4D-11" value="" style="endArrow=none;html=1;rounded=0;strokeWidth=3;entryX=0.5;entryY=0.98;entryDx=0;entryDy=0;entryPerimeter=0;" edge="1" parent="1">
          <mxGeometry width="50" height="50" relative="1" as="geometry">
            <mxPoint x="786" y="265" as="sourcePoint" />
            <mxPoint x="728" y="364" as="targetPoint" />
          </mxGeometry>
        </mxCell>
        <mxCell id="F-6HF-LXUj0dGaGDXy4D-12" value="" style="endArrow=none;html=1;rounded=0;exitX=0.5;exitY=0.98;exitDx=0;exitDy=0;exitPerimeter=0;strokeWidth=3;entryX=0.87;entryY=0.74;entryDx=0;entryDy=0;entryPerimeter=0;" edge="1" parent="1">
          <mxGeometry width="50" height="50" relative="1" as="geometry">
            <mxPoint x="798" y="264" as="sourcePoint" />
            <mxPoint x="679" y="270" as="targetPoint" />
          </mxGeometry>
        </mxCell>
        <mxCell id="F-6HF-LXUj0dGaGDXy4D-13" value="" style="endArrow=none;html=1;rounded=0;exitX=0.5;exitY=0.98;exitDx=0;exitDy=0;exitPerimeter=0;strokeWidth=3;entryX=0.5;entryY=0.98;entryDx=0;entryDy=0;entryPerimeter=0;" edge="1" parent="1">
          <mxGeometry width="50" height="50" relative="1" as="geometry">
            <mxPoint x="728" y="364" as="sourcePoint" />
            <mxPoint x="643" y="279" as="targetPoint" />
          </mxGeometry>
        </mxCell>
        <mxCell id="F-6HF-LXUj0dGaGDXy4D-14" value="" style="shape=mxgraph.cisco.switches.workgroup_switch;html=1;pointerEvents=1;dashed=0;fillColor=#036897;strokeColor=#ffffff;strokeWidth=2;verticalLabelPosition=bottom;verticalAlign=top;align=center;outlineConnect=0;" vertex="1" parent="1">
          <mxGeometry x="595" y="250" width="96" height="50" as="geometry" />
        </mxCell>
        <mxCell id="F-6HF-LXUj0dGaGDXy4D-15" value="" style="shape=mxgraph.cisco.switches.workgroup_switch;html=1;pointerEvents=1;dashed=0;fillColor=#036897;strokeColor=#ffffff;strokeWidth=2;verticalLabelPosition=bottom;verticalAlign=top;align=center;outlineConnect=0;" vertex="1" parent="1">
          <mxGeometry x="680" y="335" width="96" height="50" as="geometry" />
        </mxCell>
        <mxCell id="F-6HF-LXUj0dGaGDXy4D-16" value="" style="shape=mxgraph.cisco.switches.workgroup_switch;html=1;pointerEvents=1;dashed=0;fillColor=#036897;strokeColor=#ffffff;strokeWidth=2;verticalLabelPosition=bottom;verticalAlign=top;align=center;outlineConnect=0;" vertex="1" parent="1">
          <mxGeometry x="750" y="235" width="96" height="50" as="geometry" />
        </mxCell>
        <mxCell id="F-6HF-LXUj0dGaGDXy4D-18" value="" style="curved=1;endArrow=none;html=1;rounded=0;entryX=0.5;entryY=1;entryDx=0;entryDy=0;entryPerimeter=0;strokeWidth=2;dashed=1;startFill=0;" edge="1" parent="1" source="F-6HF-LXUj0dGaGDXy4D-15" target="F-6HF-LXUj0dGaGDXy4D-7">
          <mxGeometry width="50" height="50" relative="1" as="geometry">
            <mxPoint x="675" y="489" as="sourcePoint" />
            <mxPoint x="936" y="500" as="targetPoint" />
            <Array as="points">
              <mxPoint x="775" y="420" />
              <mxPoint x="888" y="405" />
            </Array>
          </mxGeometry>
        </mxCell>
        <mxCell id="F-6HF-LXUj0dGaGDXy4D-19" value="" style="curved=1;endArrow=none;html=1;rounded=0;entryX=0;entryY=0.5;entryDx=0;entryDy=0;entryPerimeter=0;strokeWidth=2;dashed=1;startFill=0;exitX=0.5;exitY=0.98;exitDx=0;exitDy=0;exitPerimeter=0;" edge="1" parent="1" source="F-6HF-LXUj0dGaGDXy4D-16" target="F-6HF-LXUj0dGaGDXy4D-7">
          <mxGeometry width="50" height="50" relative="1" as="geometry">
            <mxPoint x="820" y="259" as="sourcePoint" />
            <mxPoint x="1081" y="270" as="targetPoint" />
            <Array as="points">
              <mxPoint x="825" y="305" />
              <mxPoint x="880" y="315" />
            </Array>
          </mxGeometry>
        </mxCell>
        <mxCell id="F-6HF-LXUj0dGaGDXy4D-21" value="&lt;b&gt;&lt;font style=&quot;font-size: 15px;&quot;&gt;Redes tradicionales&lt;/font&gt;&lt;/b&gt;" style="text;html=1;align=center;verticalAlign=middle;whiteSpace=wrap;rounded=0;" vertex="1" parent="1">
          <mxGeometry x="277" y="150" width="202" height="30" as="geometry" />
        </mxCell>
        <mxCell id="F-6HF-LXUj0dGaGDXy4D-22" value="&lt;b&gt;&lt;font style=&quot;font-size: 15px;&quot;&gt;Redes definidas por software&lt;/font&gt;&lt;/b&gt;" style="text;html=1;align=center;verticalAlign=middle;whiteSpace=wrap;rounded=0;" vertex="1" parent="1">
          <mxGeometry x="616" y="150" width="224" height="30" as="geometry" />
        </mxCell>
        <mxCell id="F-6HF-LXUj0dGaGDXy4D-23" value="" style="endArrow=classic;html=1;rounded=0;strokeWidth=2;endSize=2;" edge="1" parent="1">
          <mxGeometry width="50" height="50" relative="1" as="geometry">
            <mxPoint x="220" y="300" as="sourcePoint" />
            <mxPoint x="245" y="290" as="targetPoint" />
          </mxGeometry>
        </mxCell>
        <mxCell id="F-6HF-LXUj0dGaGDXy4D-24" value="&lt;font style=&quot;font-size: 13px;&quot;&gt;Plano de datos&lt;/font&gt;" style="text;html=1;align=center;verticalAlign=middle;whiteSpace=wrap;rounded=0;" vertex="1" parent="1">
          <mxGeometry x="120" y="285" width="105" height="30" as="geometry" />
        </mxCell>
        <mxCell id="F-6HF-LXUj0dGaGDXy4D-25" value="&lt;font style=&quot;font-size: 13px;&quot;&gt;Plano de control&lt;/font&gt;" style="text;html=1;align=center;verticalAlign=middle;whiteSpace=wrap;rounded=0;" vertex="1" parent="1">
          <mxGeometry x="115" y="235" width="105" height="30" as="geometry" />
        </mxCell>
        <mxCell id="F-6HF-LXUj0dGaGDXy4D-27" value="" style="endArrow=classic;html=1;rounded=1;strokeWidth=2;curved=0;endSize=2;exitX=0.998;exitY=0.64;exitDx=0;exitDy=0;exitPerimeter=0;" edge="1" parent="1">
          <mxGeometry width="50" height="50" relative="1" as="geometry">
            <mxPoint x="219.78999999999996" y="253.81" as="sourcePoint" />
            <mxPoint x="245" y="266.18068493150685" as="targetPoint" />
          </mxGeometry>
        </mxCell>
        <mxCell id="F-6HF-LXUj0dGaGDXy4D-29" value="" style="endArrow=classic;html=1;rounded=1;strokeWidth=2;curved=0;endSize=2;exitX=0.998;exitY=0.64;exitDx=0;exitDy=0;exitPerimeter=0;" edge="1" parent="1">
          <mxGeometry width="50" height="50" relative="1" as="geometry">
            <mxPoint x="310" y="380" as="sourcePoint" />
            <mxPoint x="325" y="365" as="targetPoint" />
          </mxGeometry>
        </mxCell>
        <mxCell id="F-6HF-LXUj0dGaGDXy4D-30" value="&lt;font style=&quot;font-size: 13px;&quot;&gt;Switch&lt;/font&gt;" style="text;html=1;align=center;verticalAlign=middle;whiteSpace=wrap;rounded=0;" vertex="1" parent="1">
          <mxGeometry x="236" y="370" width="105" height="30" as="geometry" />
        </mxCell>
        <mxCell id="F-6HF-LXUj0dGaGDXy4D-31" value="" style="endArrow=none;html=1;rounded=0;strokeWidth=4;" edge="1" parent="1">
          <mxGeometry width="50" height="50" relative="1" as="geometry">
            <mxPoint x="540" y="410" as="sourcePoint" />
            <mxPoint x="540" y="200" as="targetPoint" />
          </mxGeometry>
        </mxCell>
        <mxCell id="F-6HF-LXUj0dGaGDXy4D-32" value="" style="endArrow=classic;html=1;rounded=1;strokeWidth=2;curved=0;endSize=2;exitX=0.998;exitY=0.64;exitDx=0;exitDy=0;exitPerimeter=0;" edge="1" parent="1">
          <mxGeometry width="50" height="50" relative="1" as="geometry">
            <mxPoint x="660" y="400" as="sourcePoint" />
            <mxPoint x="675" y="385" as="targetPoint" />
          </mxGeometry>
        </mxCell>
        <mxCell id="F-6HF-LXUj0dGaGDXy4D-33" value="&lt;font style=&quot;font-size: 13px;&quot;&gt;&quot;Switch&quot; programable&lt;/font&gt;" style="text;html=1;align=center;verticalAlign=middle;whiteSpace=wrap;rounded=0;" vertex="1" parent="1">
          <mxGeometry x="580" y="395" width="105" height="30" as="geometry" />
        </mxCell>
        <mxCell id="F-6HF-LXUj0dGaGDXy4D-34" value="" style="endArrow=classic;html=1;rounded=0;strokeWidth=2;endSize=2;entryX=1;entryY=0;entryDx=0;entryDy=0;entryPerimeter=0;" edge="1" parent="1" target="F-6HF-LXUj0dGaGDXy4D-7">
          <mxGeometry width="50" height="50" relative="1" as="geometry">
            <mxPoint x="950" y="240" as="sourcePoint" />
            <mxPoint x="945" y="335" as="targetPoint" />
          </mxGeometry>
        </mxCell>
        <mxCell id="F-6HF-LXUj0dGaGDXy4D-35" value="&lt;font style=&quot;font-size: 13px;&quot;&gt;Controlador&lt;/font&gt;" style="text;html=1;align=center;verticalAlign=middle;whiteSpace=wrap;rounded=0;" vertex="1" parent="1">
          <mxGeometry x="900" y="215" width="105" height="30" as="geometry" />
        </mxCell>
      </root>
    </mxGraphModel>
  </diagram>
</mxfile>
